<svg xmlns="http://www.w3.org/2000/svg" width="24" height="24" viewBox="0 0 1024 1024" fill="currentColor" stroke="none">
<g transform="translate(0,1024) scale(0.1,-0.1)">
<path d="M4000 7923 c-728 -50 -1324 -267 -1760 -641 -175 -150 -298 -305
-381 -477 -70 -145 -85 -233 -53 -300 35 -74 93 -89 263 -68 155 20 580 22
730 5 133 -15 302 -42 365 -56 l49 -12 43 -112 c52 -134 66 -156 105 -172 43
-18 76 -8 204 66 64 36 117 65 119 63 2 -2 20 -47 40 -99 51 -130 56 -140 88
-156 46 -24 77 -16 203 50 l121 65 13 -37 c63 -177 86 -225 115 -243 49 -30
79 -23 203 42 91 48 117 58 124 48 5 -8 25 -63 44 -124 40 -120 62 -150 120
-161 29 -5 55 4 165 56 l130 61 63 -34 c83 -47 197 -122 301 -199 l86 -63 0
-100 c0 -345 124 -642 369 -886 206 -205 469 -343 771 -404 111 -23 366 -30
501 -15 388 42 763 241 1004 530 257 309 415 749 415 1158 0 214 -33 278 -259
502 -547 541 -1176 980 -1796 1255 -404 179 -865 316 -1290 385 -38 6 -95 15
-125 20 -272 46 -814 72 -1090 53z m555 -158 c157 -6 275 -18 480 -46 1186
-165 2199 -685 3143 -1614 211 -207 228 -237 225 -401 -8 -439 -185 -869 -471
-1146 -241 -233 -517 -355 -881 -388 -401 -37 -836 124 -1099 405 -195 208
-292 463 -292 770 0 110 -2 125 -23 156 -36 55 -269 222 -466 335 -107 62
-125 61 -259 -5 -56 -28 -106 -51 -110 -51 -4 0 -27 56 -51 125 -69 200 -97
211 -285 114 -64 -34 -118 -59 -120 -58 -1 2 -22 58 -46 124 -49 134 -81 175
-133 175 -19 0 -75 -24 -148 -65 -65 -36 -122 -65 -127 -65 -5 0 -28 49 -52
110 -72 184 -104 194 -290 87 -63 -37 -118 -67 -122 -67 -3 0 -25 48 -48 108
-23 59 -51 117 -62 129 -24 26 -27 27 -247 64 -346 59 -706 71 -1013 35 -128
-15 -126 -17 -76 102 88 212 308 451 578 628 403 264 935 418 1529 444 97 4
210 6 251 4 41 -2 138 -6 215 -9z M5290 5263 c-52 -25 -147 -65 -210 -89 -69
-26 -124 -54 -136 -68 -12 -13 -41 -78 -64 -145 l-42 -120 -129 65 c-71 35
-142 64 -158 64 -52 0 -84 -39 -130 -159 -23 -61 -46 -113 -51 -116 -6 -3 -67
23 -136 59 -69 37 -135 66 -145 66 -52 0 -78 -28 -134 -145 -29 -63 -56 -115
-58 -115 -3 0 -60 32 -126 71 -193 113 -220 109 -311 -55 l-52 -95 -65 -7
c-36 -3 -203 -4 -372 -1 -365 6 -499 20 -912 98 -64 11 -69 11 -115 -12 -63
-31 -86 -65 -92 -132 -12 -147 124 -391 338 -606 373 -376 919 -660 1515 -789
666 -145 1480 -115 2175 80 545 152 1062 411 1475 737 39 30 89 70 113 89 24
19 41 36 39 39 -3 2 -33 -3 -68 -12 -35 -10 -110 -25 -166 -35 -82 -14 -110
-24 -140 -47 -69 -54 -220 -152 -345 -224 -544 -312 -1164 -497 -1841 -550
-191 -15 -700 -6 -855 15 -735 99 -1326 361 -1756 776 -154 149 -254 287 -304
423 -29 77 -29 101 1 94 12 -3 101 -19 197 -36 317 -54 450 -64 845 -65 434 0
413 -5 488 119 26 44 51 83 56 88 4 4 66 -24 137 -63 194 -106 219 -100 301
65 30 60 57 111 58 113 2 2 59 -26 127 -62 193 -102 215 -95 293 97 26 64 49
117 51 117 3 0 58 -27 124 -60 197 -99 222 -89 295 116 26 72 50 135 53 141 4
5 54 28 112 52 58 23 132 56 165 74 l60 32 3 83 c2 45 -1 82 -5 81 -4 0 -51
-21 -103 -46z"/>
</g>
</svg>