<svg xmlns="http://www.w3.org/2000/svg" viewBox="0 0 512 512" fill="none">
  <defs>
    <linearGradient id="bgB" x1="0" y1="0" x2="512" y2="512" gradientUnits="userSpaceOnUse">
      <stop offset="0%" stop-color="hsl(173, 80%, 28%)"/>
      <stop offset="100%" stop-color="hsl(265, 60%, 32%)"/>
    </linearGradient>
    <linearGradient id="clawB" x1="130" y1="80" x2="380" y2="420" gradientUnits="userSpaceOnUse">
      <stop offset="0%" stop-color="hsl(173, 85%, 60%)"/>
      <stop offset="50%" stop-color="hsl(190, 75%, 55%)"/>
      <stop offset="100%" stop-color="hsl(265, 55%, 60%)"/>
    </linearGradient>
  </defs>
  <rect x="16" y="16" width="480" height="480" rx="96" fill="url(#bgB)"/>
  <rect x="16" y="16" width="480" height="480" rx="96" fill="none" stroke="hsl(173, 80%, 45%)" stroke-width="2" opacity="0.25"/>
  <g transform="translate(256, 256)">
    <path d="M -15 30 C -25 -20, -55 -70, -100 -120 C -120 -145, -115 -170, -90 -168 C -65 -166, -50 -145, -40 -110" stroke="url(#clawB)" stroke-width="38" stroke-linecap="round" fill="none"/>
    <path d="M 15 30 C 25 -20, 55 -70, 100 -120 C 120 -145, 115 -170, 90 -168 C 65 -166, 50 -145, 40 -110" stroke="url(#clawB)" stroke-width="38" stroke-linecap="round" fill="none"/>
    <path d="M -40 30 C -40 90, -25 140, 0 160 C 25 140, 40 90, 40 30" stroke="url(#clawB)" stroke-width="36" stroke-linecap="round" fill="none"/>
  </g>
</svg>
