<svg xmlns="http://www.w3.org/2000/svg" viewBox="0 0 1024 1024" fill="url(#clawGradient)" stroke="none">
<defs>
  <linearGradient id="clawGradient" x1="0%" y1="0%" x2="100%" y2="100%">
    <stop offset="0%" stop-color="#2dd4bf"/>
    <stop offset="50%" stop-color="#14b8a6"/>
    <stop offset="100%" stop-color="#8b5cf6"/>
  </linearGradient>
</defs>
<g transform="translate(0,1024) scale(0.1,-0.1)">
<path d="M4000 8003 c-731 -50 -1322 -266 -1765 -645 -128 -110 -266 -256
-349 -371 -75 -105 -155 -269 -169 -350 -15 -88 -4 -127 49 -186 95 -106 126
-116 303 -94 249 31 659 21 931 -22 52 -9 109 -18 127 -21 30 -4 34 -11 64
-90 35 -92 102 -180 162 -211 44 -22 83 -12 192 51 53 31 98 56 100 56 2 0 12
-26 22 -57 19 -61 92 -152 144 -178 46 -24 76 -18 180 37 55 28 101 49 102 47
2 -2 16 -35 31 -74 41 -104 135 -195 201 -195 15 0 69 23 122 51 52 27 96 49
97 47 1 -2 13 -36 27 -76 21 -63 33 -82 85 -132 90 -86 103 -87 264 -10 l130
61 68 -37 c37 -21 120 -73 185 -117 85 -57 117 -85 117 -99 0 -16 -3 -18 -14
-9 -10 9 -36 1 -112 -35 -54 -26 -151 -66 -214 -90 -101 -39 -121 -51 -173
-102 -46 -45 -63 -72 -85 -129 -14 -40 -30 -73 -34 -73 -5 0 -53 22 -108 50
-134 67 -145 66 -230 -16 -57 -54 -73 -78 -92 -130 -13 -35 -27 -64 -31 -64
-5 0 -56 25 -113 55 -58 30 -114 55 -125 55 -55 0 -155 -94 -193 -182 -14 -32
-28 -58 -32 -58 -3 0 -53 28 -110 61 -71 42 -120 63 -149 67 -43 4 -46 3 -111
-59 -36 -35 -77 -85 -90 -111 -13 -26 -34 -53 -46 -59 -16 -8 -113 -10 -362
-6 -396 7 -489 16 -856 84 -168 31 -187 27 -278 -60 -72 -69 -92 -106 -92
-170 0 -94 68 -246 178 -401 67 -95 311 -343 432 -440 472 -378 1096 -618
1780 -686 276 -27 682 -23 985 11 745 82 1436 334 2015 736 155 108 303 223
372 291 l58 56 -27 28 c-15 15 -25 30 -22 32 2 2 40 21 84 41 207 94 427 268
600 475 256 307 415 749 415 1158 0 141 -19 216 -76 302 -42 64 -356 378 -529
530 -501 440 -1011 775 -1530 1005 -404 179 -865 316 -1290 385 -38 6 -95 15
-125 20 -272 46 -814 72 -1090 53z m555 -318 c459 -18 986 -117 1445 -272 761
-256 1488 -714 2138 -1347 97 -95 130 -134 155 -185 31 -63 32 -70 30 -177 -6
-343 -121 -696 -314 -967 -75 -106 -148 -175 -268 -256 -202 -134 -415 -206
-690 -231 -337 -31 -714 81 -977 291 -135 107 -251 305 -305 520 -15 60 -22
130 -26 244 -4 102 -10 169 -18 185 -39 73 -261 250 -484 385 -183 110 -178
109 -314 43 -91 -44 -85 -47 -117 48 -17 51 -33 73 -89 128 -88 84 -102 85
-235 15 l-96 -50 -11 28 c-6 15 -20 51 -30 80 -15 38 -37 68 -85 112 -83 78
-97 79 -228 6 -55 -30 -102 -55 -106 -55 -4 0 -17 26 -29 58 -17 44 -39 75
-87 123 -60 59 -68 64 -107 63 -32 0 -65 -14 -140 -58 -54 -32 -100 -56 -102
-54 -2 1 -13 28 -25 58 -14 37 -41 75 -83 117 -68 70 -56 66 -310 109 -78 13
-245 31 -371 41 -197 14 -257 15 -420 5 -104 -6 -192 -9 -194 -7 -15 14 77
168 165 278 169 210 546 439 933 566 181 60 422 112 659 141 116 15 419 29
521 24 41 -2 138 -6 215 -9z m932 -2770 c60 -183 152 -325 326 -502 153 -155
267 -241 432 -322 218 -108 391 -150 660 -159 l179 -7 -109 -71 c-583 -380
-1272 -606 -2028 -665 -191 -15 -700 -6 -855 15 -271 37 -470 81 -702 158
-503 166 -984 481 -1175 768 -44 67 -106 182 -101 188 2 1 68 -9 147 -22 282
-49 428 -59 809 -60 258 0 365 3 392 13 33 11 168 138 168 159 1 34 22 29 135
-33 126 -68 163 -77 213 -51 42 22 114 105 141 164 14 28 28 52 32 52 4 0 55
-25 112 -55 140 -74 159 -74 240 4 50 47 67 73 87 126 14 37 28 69 32 71 4 3
52 -18 107 -46 140 -70 163 -69 245 10 58 55 64 66 101 171 40 112 40 112 85
131 135 58 222 104 247 130 l27 29 13 -58 c8 -32 25 -94 40 -138z"/>
</g>
</svg>